<!DOCTYPE svg PUBLIC "-//W3C//DTD SVG 1.1//EN" "http://www.w3.org/Graphics/SVG/1.1/DTD/svg11.dtd">
<!-- Uploaded to: SVG Repo, www.svgrepo.com, Transformed by: SVG Repo Mixer Tools -->
<svg fill="#ffffff" height="175px" width="175px" version="1.1" id="Layer_1" xmlns="http://www.w3.org/2000/svg" xmlns:xlink="http://www.w3.org/1999/xlink" viewBox="0 0 50.00 50.00" enable-background="new 0 0 50 50" xml:space="preserve" stroke="#ffffff" stroke-width="0.55">
<g id="SVGRepo_bgCarrier" stroke-width="0"/>
<g id="SVGRepo_tracerCarrier" stroke-linecap="round" stroke-linejoin="round"/>
<g id="SVGRepo_iconCarrier"> <path d="M9.719,38.5L9.719,38.5h19.984H39.86c0.552,0,1-0.447,1-1s-0.448-1-1-1H29.703H9.72h0c-0.552,0-1,0.447-1,1 S9.167,38.5,9.719,38.5z"/> <path d="M9.719,30.5h30c0.552,0,1-0.447,1-1s-0.448-1-1-1h-30c-0.552,0-1,0.447-1,1S9.167,30.5,9.719,30.5z"/> <path d="M39.719,12.5h-30c-0.552,0-1,0.447-1,1s0.448,1,1,1h30c0.552,0,1-0.447,1-1S40.271,12.5,39.719,12.5z"/> <path d="M39.86,20.5H29.703H9.72h0c-0.552,0-1,0.447-1,1s0.448,1,1,1h0h19.983H39.86c0.552,0,1-0.447,1-1S40.412,20.5,39.86,20.5z"/> </g>
</svg>